<?xml version="1.0" encoding="UTF-8"?>
<svg width="42px" height="42px" viewBox="0 0 42 42" version="1.1" xmlns="http://www.w3.org/2000/svg" xmlns:xlink="http://www.w3.org/1999/xlink">
    <!-- Generator: Sketch 44.1 (41455) - http://www.bohemiancoding.com/sketch -->
    <title>clock</title>
    <desc>Created with Sketch.</desc>
    <defs></defs>
    <g id="Page-1" stroke="none" stroke-width="1" fill="none" fill-rule="evenodd">
        <g id="clock" fill-rule="nonzero" fill="#000000">
            <path d="M21,-4.4408921e-16 C9.42168539,-4.4408921e-16 0,9.42168539 0,21 C0,32.5783146 9.42168539,42 21,42 C32.5783146,42 42,32.5783146 42,21 C42,9.42168539 32.5783146,-4.4408921e-16 21,-4.4408921e-16 Z M21,39.6404494 C10.7213258,39.6404494 2.35955056,31.2786742 2.35955056,21 C2.35955056,10.7213258 10.7213258,2.35955056 21,2.35955056 C31.2786742,2.35955056 39.6404494,10.7213258 39.6404494,21 C39.6404494,31.2786742 31.2786742,39.6404494 21,39.6404494 Z M22.1797753,18.1888315 L22.1797753,6.29339326 L19.8202247,6.29339326 L19.8202247,23.8111685 L30.3995056,13.4253708 L28.7459798,11.7423506 L22.1797753,18.1888315 Z" id="clock-icon"></path>
        </g>
    </g>
</svg>