<?xml version="1.0" encoding="UTF-8"?>
<svg width="14px" height="14px" viewBox="0 0 14 14" version="1.1" xmlns="http://www.w3.org/2000/svg" xmlns:xlink="http://www.w3.org/1999/xlink">
    <!-- Generator: Sketch 44.1 (41455) - http://www.bohemiancoding.com/sketch -->
    <title>comment icon</title>
    <desc>Created with Sketch.</desc>
    <defs></defs>
    <g id="Page-1" stroke="none" stroke-width="1" fill="none" fill-rule="evenodd">
        <g id="comment-icon" fill="#555555" fill-rule="nonzero">
            <path d="M4.19452365,14 L4.19233602,14 C3.81499591,14 3.48140557,13.8135209 3.29984048,13.5012525 C2.98977003,12.9724331 3.23968418,12.3768901 3.52515535,11.8628407 L3.52460838,11.8628407 C3.77726511,11.407297 3.94842826,10.9112794 4.03046785,10.397188 C2.92140739,9.999618 1.97205814,9.38164709 1.26492168,8.59301703 C0.437497813,7.67044965 0,6.58220709 0,5.44583277 C0,4.69115254 0.191407043,3.9605802 0.570931145,3.27472363 C0.929679352,2.62504287 1.4393608,2.04425578 2.08572357,1.54769226 C3.38564507,0.549651252 5.10284849,0 6.92115939,0 C8.7394703,0 10.4572617,0.550155249 11.7565952,1.54825226 C12.403,2.04426978 12.9126814,2.62504287 13.2713876,3.27584362 C13.6498198,3.96270819 13.8423188,4.69333653 13.8423188,5.44807276 C13.8423188,6.61729091 13.3829531,7.73076135 12.5128714,8.66693667 C11.6958495,9.54630027 10.5769611,10.203709 9.27048765,10.5716271 C7.60687597,11.9868801 6.3397423,12.9685552 5.50366648,13.4897726 C4.74789426,13.9606322 4.43289584,14 4.19444903,14 L4.19452365,14 Z M6.92129001,1.13098435 C5.35063787,1.13098435 3.87798523,1.59800801 2.77437075,2.44456978 C1.71453405,3.25831571 1.13161896,4.32364038 1.13161896,5.44587477 C1.13161896,7.20188599 2.60651159,8.81453793 4.80170061,9.4593747 L5.23372445,9.58624907 L5.20638119,10.0357728 L5.20692803,10.0363197 C5.15497569,10.8697495 4.91817947,11.6818714 4.51349749,12.4125278 L4.51295066,12.4125278 C4.43310765,12.5492455 4.36583939,12.6930724 4.31279366,12.8423676 C4.62779208,12.7329932 5.63021507,12.1905029 8.63303205,9.62952369 L8.73092237,9.54639911 L8.85560854,9.51358607 C11.162377,8.90218113 12.7110493,7.26925729 12.7110493,5.4487064 C12.7110493,4.32543601 12.1275322,3.25953734 11.0682975,2.44530141 C9.96525699,1.59819365 8.49203036,1.13116998 6.92137821,1.13116998 L6.92129001,1.13098435 Z"></path>
        </g>
    </g>
</svg>