<?xml version="1.0" encoding="UTF-8"?>
<svg width="144px" height="144px" viewBox="0 0 144 144" version="1.1" xmlns="http://www.w3.org/2000/svg" xmlns:xlink="http://www.w3.org/1999/xlink">
    <!-- Generator: Sketch 42 (36781) - http://www.bohemiancoding.com/sketch -->
    <title>connect and disconnect</title>
    <desc>Created with Sketch.</desc>
    <defs></defs>
    <g id="Page-1" stroke="none" stroke-width="1" fill="none" fill-rule="evenodd">
        <g id="connected" transform="translate(71.716969, 72.496970) rotate(45.000000) translate(-71.716969, -72.496970) translate(29.716969, 30.496970)" fill-rule="nonzero" fill="#000000">
            <path d="M51.4822296,54.4522248 L65.0602296,40.8742248 C66.2125296,39.7219248 66.2125296,37.8508248 65.0602296,36.6984248 C63.9079296,35.5461248 62.0368296,35.5461248 60.8844296,36.6984248 L47.3064296,50.2764248 L33.7284296,36.6984248 L47.3064296,23.1244248 C48.4587296,21.9721248 48.4587296,20.1010248 47.3064296,18.9486248 C46.1541296,17.7962248 44.2830296,17.7963248 43.1306296,18.9486248 L29.5526296,32.5226248 L24.8534296,27.8234248 L16.4979296,36.1750248 C8.91982964,43.7570248 7.98232964,55.4560248 13.6815296,64.0580248 L0.833529635,76.9060248 L7.09912964,83.1716248 L19.9471296,70.3236248 C28.5487296,76.0228248 40.2521296,75.0853248 47.8301296,67.5033248 L56.1856296,59.1478248 L51.4864296,54.4486248 L51.4822296,54.4522248 Z" id="Shape"></path>
            <path d="M59.5049621,56.176672 L67.8604621,47.821172 C75.4385621,40.243072 76.3760621,28.540172 70.6807621,19.938172 L83.5247621,7.09417201 L77.2591621,0.828572008 L64.4111621,13.676572 C55.8095621,7.97737201 44.1101621,8.91487201 36.5281621,16.492972 L28.1726621,24.848472 C58.8206621,55.496472 28.4148521,25.090662 59.5006621,56.176472 L59.5049621,56.176672 Z" id="Shape"></path>
        </g>
    </g>
</svg>