<?xml version="1.0" encoding="UTF-8"?>
<svg width="144px" height="144px" viewBox="0 0 144 144" version="1.1" xmlns="http://www.w3.org/2000/svg" xmlns:xlink="http://www.w3.org/1999/xlink">
    <!-- Generator: Sketch 42 (36781) - http://www.bohemiancoding.com/sketch -->
    <title>connect and disconnect</title>
    <desc>Created with Sketch.</desc>
    <defs></defs>
    <g id="Page-1" stroke="none" stroke-width="1" fill="none" fill-rule="evenodd">
        <g id="disconnected" transform="translate(71.500000, 72.500000) rotate(45.000000) translate(-71.500000, -72.500000) translate(21.000000, 22.000000)" fill-rule="nonzero" fill="#000000">
            <path d="M51.648,71.281 L65.226,57.703 C66.3783,56.5507 66.3783,54.6796 65.226,53.5272 C64.0737,52.3749 62.2026,52.3749 61.0502,53.5272 L47.4722,67.1052 L33.8942,53.5272 L47.4722,39.9532 C48.6245,38.8009 48.6245,36.9298 47.4722,35.7774 C46.3199,34.625 44.4488,34.6251 43.2964,35.7774 L29.7184,49.3514 L25.0192,44.6522 L16.6637,53.0038 C9.0856,60.5858 8.1481,72.2848 13.8473,80.8868 L0.9993,93.7348 L7.2649,100.0004 L20.1129,87.1524 C28.7145,92.8516 40.4179,91.9141 47.9959,84.3321 L56.3514,75.9766 L51.6522,71.2774 L51.648,71.281 Z" id="Shape"></path>
            <path d="M76.98,55.348 L85.3355,46.9925 C92.9136,39.4144 93.8511,27.7115 88.1558,19.1095 L100.9998,6.2655 L94.7342,-0.0001 L81.8862,12.8479 C73.2846,7.1487 61.5852,8.0862 54.0032,15.6643 L45.6477,24.0198 C76.2957,54.6678 45.88989,24.26199 76.9757,55.3478 L76.98,55.348 Z" id="Shape"></path>
        </g>
    </g>
</svg>