<?xml version="1.0" encoding="UTF-8"?>
<svg width="33px" height="42px" viewBox="0 0 33 42" version="1.1" xmlns="http://www.w3.org/2000/svg" xmlns:xlink="http://www.w3.org/1999/xlink">
    <!-- Generator: Sketch 44.1 (41455) - http://www.bohemiancoding.com/sketch -->
    <title>document icon</title>
    <desc>Created with Sketch.</desc>
    <defs></defs>
    <g id="Page-1" stroke="none" stroke-width="1" fill="none" fill-rule="evenodd">
        <g id="document-icon" fill-rule="nonzero" fill="#333333">
            <path d="M32.7293384,9.6365571 L24.5316897,0.399113817 C24.3052159,0.144791862 23.9822333,0 23.6424943,0 L1.18806504,0 C0.530922504,0 0,0.530922504 0,1.18806504 L0,40.811935 C0,41.4690775 0.530922504,42 1.18806504,42 L31.840143,42 C32.4972856,42 33.0282081,41.4690775 33.0282081,40.811935 L33.0282081,10.4255083 C33.0282081,10.1359151 32.9205409,9.8537639 32.7293337,9.63653809 L32.7293384,9.6365571 Z M24.812073,4.29406624 L29.2505889,9.2967705 L24.812073,9.2967705 L24.812073,4.29406624 Z M30.6521255,39.6223682 L2.3761776,39.6223682 L2.3761776,2.37652927 L22.4359429,2.37652927 L22.4359429,10.4848355 C22.4359429,11.1419781 22.9668654,11.6729006 23.624008,11.6729006 L30.6521255,11.6729006 L30.6521255,39.6223682 Z M6.63087611,20.2459779 C6.63087611,20.9031204 7.16179862,21.4340429 7.81894115,21.4340429 L25.207461,21.4340429 C25.8646036,21.4340429 26.3955261,20.9031204 26.3955261,20.2459779 C26.3955261,19.5888354 25.8646036,19.0579129 25.207461,19.0579129 L7.81894115,19.0579129 C7.163652,19.0579129 6.63087611,19.5906887 6.63087611,20.2459779 Z M25.209362,25.4810677 L7.82084206,25.4810677 C7.16369952,25.4810677 6.63277702,26.0119902 6.63277702,26.6691327 C6.63277702,27.3262752 7.16369952,27.8571978 7.82084206,27.8571978 L25.209362,27.8571978 C25.8665045,27.8571978 26.397427,27.3262752 26.397427,26.6691327 C26.397427,26.0119902 25.8646511,25.4810677 25.209362,25.4810677 Z M25.209362,31.9004207 L7.82084206,31.9004207 C7.16369952,31.9004207 6.63277702,32.4313432 6.63277702,33.0884857 C6.63277702,33.7456283 7.16369952,34.2765508 7.82084206,34.2765508 L25.209362,34.2765508 C25.8665045,34.2765508 26.397427,33.7456283 26.397427,33.0884857 C26.397427,32.4331966 25.8646511,31.9004207 25.209362,31.9004207 Z" id="Shape"></path>
        </g>
    </g>
</svg>