<?xml version="1.0" encoding="UTF-8"?>
<svg width="42px" height="42px" viewBox="0 0 42 42" version="1.1" xmlns="http://www.w3.org/2000/svg" xmlns:xlink="http://www.w3.org/1999/xlink">
    <!-- Generator: Sketch 43.2 (39069) - http://www.bohemiancoding.com/sketch -->
    <title>peers</title>
    <desc>Created with Sketch.</desc>
    <defs></defs>
    <g id="Page-1" stroke="none" stroke-width="1" fill="none" fill-rule="evenodd">
        <g id="peers" fill-rule="nonzero" fill="#333333">
            <path d="M25.19993,0 C22.633299,0 20.5333281,2.09997083 20.5333281,4.66660185 C20.5333281,6.46945015 21.5778536,8.03164178 23.0853994,8.808211 L21.2333184,16.201975 C20.5679543,15.9905219 19.8679641,15.866563 19.1333476,15.866563 C17.5127768,15.866563 16.0198375,16.4243619 14.8313007,17.3540423 L7.62700074,11.2874599 C8.11372731,10.6020294 8.39988333,9.76535437 8.39988333,8.86666019 C8.39988333,6.55888557 6.50771628,4.66671852 4.19994167,4.66671852 C1.89216705,4.66671852 0,6.55888557 0,8.86666019 C0,11.1744348 1.89216705,13.0666019 4.19994167,13.0666019 C4.92909821,13.0666019 5.61266205,12.8715519 6.21241372,12.5416091 L13.5184456,18.6959237 C12.6489177,19.8625741 12.1330248,21.3063274 12.1330248,22.8666991 C12.1330248,24.456237 12.6780839,25.9182367 13.5767781,27.095807 L8.83737726,31.850141 C7.92048333,31.1939234 6.8066588,30.8001556 5.59992222,30.8001556 C2.51739837,30.8001556 0,33.3175539 0,36.4000778 C0,39.4826016 2.51739837,42 5.59992222,42 C8.68244608,42 11.1998444,39.4826016 11.1998444,36.4000778 C11.1998444,35.1933412 10.8060999,34.0795167 10.149859,33.1626227 L14.8892599,28.4232219 C16.0686502,29.327376 17.5397497,29.8669752 19.1329743,29.8669752 C21.4680952,29.8669752 23.5334398,28.7039647 24.8056955,26.9357892 L31.8345312,30.260743 C31.7689094,30.5852165 31.7324493,30.9242872 31.7324493,31.2669557 C31.7324493,34.0906232 34.0420439,36.4002178 36.8657113,36.4002178 C39.6893788,36.4002178 41.9989733,34.0906232 41.9989733,31.2669557 C41.9989733,28.4432883 39.6893788,26.1336937 36.8657113,26.1336937 C35.0391567,26.1336937 33.4295524,27.1089202 32.5199383,28.5544934 L25.6805667,25.3024319 C25.96494,24.5422891 26.1326437,23.7238138 26.1326437,22.8670257 C26.1326437,22.1871018 26.0232679,21.5362976 25.8409811,20.9128862 L32.7825514,16.2900571 C33.553614,17.1705049 34.6783584,17.7338104 35.9325076,17.7338104 C38.2402822,17.7338104 40.1324493,15.8416433 40.1324493,13.5338687 C40.1324493,11.2260941 38.2402822,9.33392703 35.9325076,9.33392703 C33.624733,9.33392703 31.7325659,11.2260941 31.7325659,13.5338687 C31.7325659,13.9130301 31.7836092,14.2776317 31.8783972,14.6276268 L25.0679585,19.1775636 C24.5265394,18.3134956 23.8065294,17.5624994 22.9534279,17.0047005 L24.8784011,9.3192739 C24.9841277,9.32656546 25.0916788,9.33385703 25.19923,9.33385703 C27.765861,9.33385703 29.8658319,7.2338862 29.8658319,4.66725518 C29.7746885,1.55920501 27.4432122,0.131878168 25.19923,0.000653324259 L25.19993,0 Z" id="peers-icon"></path>
        </g>
    </g>
</svg>