<?xml version="1.0" encoding="UTF-8"?>
<svg width="61px" height="30px" viewBox="0 0 61 30" version="1.1" xmlns="http://www.w3.org/2000/svg" xmlns:xlink="http://www.w3.org/1999/xlink">
    <!-- Generator: Sketch 44.1 (41455) - http://www.bohemiancoding.com/sketch -->
    <title>switch-on</title>
    <desc>Created with Sketch.</desc>
    <defs></defs>
    <g id="Page-1" stroke="none" stroke-width="1" fill="none" fill-rule="evenodd">
        <g id="switch-on">
            <path d="M46.8513514,4 L14.1486486,4 C7.93268243,4 3,8.95110515 3,15.1902869 C3,21.4294687 7.93268243,26.3805739 14.1486486,26.3805739 L46.8513514,26.3805739 C53.0673176,26.3805739 58,21.4294687 58,15.1902869 C58,8.95110515 53.0673176,4 46.8513514,4 Z" id="Path" fill="#93C43E"></path>
            <path d="M46.255814,0 C54.4978884,0 61.2,6.72714286 61.2,15 C61.2,23.2728571 54.4978884,30 46.255814,30 L14.944186,30 C6.70211163,30 0,23.2728571 0,15 C0,6.72714286 6.70211163,0 14.944186,0 L46.255814,0 Z M46.255814,4.28571429 L14.944186,4.28571429 C8.99262837,4.28571429 4.26976744,9.02621429 4.26976744,15 C4.26976744,20.9737857 8.99262837,25.7142857 14.944186,25.7142857 L46.255814,25.7142857 C52.2073716,25.7142857 56.9302326,20.9737857 56.9302326,15 C56.9302326,9.02621429 52.2073716,4.28571429 46.255814,4.28571429 Z M46.255814,5.71428571 C51.3400395,5.71428571 55.5069767,9.89678571 55.5069767,15 C55.5069767,20.1032143 51.3400395,24.2857143 46.255814,24.2857143 C41.1715884,24.2857143 37.0046512,20.1032143 37.0046512,15 C37.0046512,9.89678571 41.1715884,5.71428571 46.255814,5.71428571 Z" id="switch---on" fill="#777777" fill-rule="nonzero"></path>
        </g>
    </g>
</svg>