<?xml version="1.0" encoding="UTF-8"?>
<svg width="20px" height="24px" viewBox="0 0 20 24" version="1.1" xmlns="http://www.w3.org/2000/svg" xmlns:xlink="http://www.w3.org/1999/xlink">
    <!-- Generator: Sketch 44.1 (41455) - http://www.bohemiancoding.com/sketch -->
    <title>trash icon</title>
    <desc>Created with Sketch.</desc>
    <defs></defs>
    <g id="Page-1" stroke="none" stroke-width="1" fill="none" fill-rule="evenodd">
        <g id="trash-icon" fill-rule="nonzero" fill="#979797">
            <path d="M20.0027587,3.77656251 L20.0027587,5.28718752 C20.0027587,5.70417037 19.6581471,6.04250002 19.2334218,6.04250002 L0.769336872,6.04250002 C0.34461163,6.04250002 0,5.70417037 0,5.28718752 L0,3.77656251 C0,3.35957966 0.34461163,3.02125001 0.769336872,3.02125001 L6.92403185,3.02125001 L6.92403185,0.755312502 C6.92403185,0.338329647 7.26864348,0 7.69336872,0 L12.30939,0 C12.7341152,0 13.0787268,0.338329647 13.0787268,0.755312502 L13.0787268,3.02125001 L19.2334218,3.02125001 C19.6581471,3.02125001 20.0027587,3.35957966 20.0027587,3.77656251 Z M3.84668436,24.1700001 C2.57245734,24.1700001 1.53867374,23.1550615 1.53867374,21.9040626 L1.53867374,8.30843753 L18.4640849,8.30843753 L18.4640849,21.9040626 C18.4640849,23.1550615 17.4303013,24.1700001 16.1560743,24.1700001 L3.84668436,24.1700001 Z M13.4633953,20.3934376 C13.4633953,21.018937 13.9802871,21.5264063 14.6174006,21.5264063 C15.2545141,21.5264063 15.7714059,21.018937 15.7714059,20.3934376 L15.7714059,12.085 C15.7714059,11.4595006 15.2545141,10.9520313 14.6174006,10.9520313 C13.9802871,10.9520313 13.4633953,11.4595006 13.4633953,12.085 L13.4633953,20.3934376 Z M8.84737403,20.3934376 C8.84737403,21.018937 9.36426583,21.5264063 10.0013793,21.5264063 C10.6384929,21.5264063 11.1553847,21.018937 11.1553847,20.3934376 L11.1553847,12.085 C11.1553847,11.4595006 10.6384929,10.9520313 10.0013793,10.9520313 C9.36426583,10.9520313 8.84737403,11.4595006 8.84737403,12.085 L8.84737403,20.3934376 Z M4.2313528,20.3934376 C4.2313528,21.018937 4.7482446,21.5264063 5.38535811,21.5264063 C6.02247162,21.5264063 6.53936342,21.018937 6.53936342,20.3934376 L6.53936342,12.085 C6.53936342,11.4595006 6.02247162,10.9520313 5.38535811,10.9520313 C4.7482446,10.9520313 4.2313528,11.4595006 4.2313528,12.085 L4.2313528,20.3934376 Z" id="trashcan"></path>
        </g>
    </g>
</svg>